<svg viewBox="-26 1 512 512.832" xmlns="http://www.w3.org/2000/svg"><path d="m315.066406 224.234375c-79.613281 0-144.382812 64.769531-144.382812 144.382813 0 79.613281 64.769531 144.382812 144.382812 144.382812 79.613282 0 144.382813-64.769531 144.382813-144.382812 0-79.613282-64.769531-144.382813-144.382813-144.382813zm129.15625 136.878906h-121.652344v-121.652343c65.375 3.757812 117.894532 56.277343 121.652344 121.652343zm-258.535156 7.503907c0-68.820313 54.015625-125.253907 121.875-129.15625v129.15625c0 2.070312.839844 3.945312 2.199219 5.304687l91.28125 91.28125c-22.875 20.382813-53 32.792969-85.976563 32.792969-71.339844 0-129.378906-58.039063-129.378906-129.378906zm225.964844 85.976562-78.472656-78.472656h111.042968c-1.726562 30.03125-13.742187 57.347656-32.570312 78.472656zm0 0"/><path d="m152.578125 382.109375c-80.75-22.242187-137.148437-96.34375-137.148437-180.207031 0-48.726563 18.75-93.152344 49.40625-126.457032l134.382812 134.382813h189.832031c-.136719 3.3125-.351562 6.617187-.660156 9.886719-.390625 4.125 2.636719 7.785156 6.761719 8.175781 4.128906.386719 7.785156-2.640625 8.175781-6.765625.601563-6.339844.902344-12.808594.902344-19.222656 0-111.328125-90.574219-201.902344-201.902344-201.902344s-201.902344 90.574219-201.902344 201.902344c0 45.101562 14.539063 87.757812 42.050781 123.355468 26.648438 34.484376 64.335938 59.808594 106.121094 71.320313.664063.183594 1.335938.269531 1.996094.269531 3.289062 0 6.3125-2.183594 7.226562-5.511718 1.101563-3.996094-1.246093-8.125-5.242187-9.226563zm236.5-187.289063h-183.644531l-130-130c33.351562-30.894531 77.953125-49.816406 126.894531-49.816406 100.683594 0 183.011719 80.03125 186.75 179.816406zm0 0"/></svg>